<svg xmlns="http://www.w3.org/2000/svg" id="a" viewBox="0 0 544.252 85.039"><defs><style>.b{fill:#0f304d;}</style></defs><path class="b" d="M154.685,27.88c0,9.568-19.825,20.178-52.251,21.586-.149-2.936-.226-5.467-.226-7.381,0-15.693,1.182-24.485,7.855-25.538,18.954-2.993,44.622,1.7,44.622,11.332m16.075,.66c0-19.326-25.934-31.055-61.284-28.082-18.666,1.488-24.245,12.885-24.245,39.315,0,2.93,.086,6.148,.248,9.568-26.613-1.539-53.512-9.377-76.811-21.981L0,41.234c24.561,13.73,51.983,22.387,86.608,23.615,.555,5.828,1.261,11.828,2.092,17.713h17.142c-.912-5.535-1.669-11.76-2.253-17.764,37.34-1.832,67.171-15.942,67.171-36.258m67.986,54.022h16.848c-1.155-19.326-4.625-37.33-10.407-51.537C237.258,11.533,225.86,.63,212.976,.63s-24.283,10.902-32.211,30.396c-5.616,14.206-9.252,32.211-10.408,51.537h17.015c2.312-39.975,15.394-65.084,25.604-65.084s23.291,25.109,25.77,65.084m119.813-39.314c0-10.407-1.157-23.622-3.47-40.966h-17.015c2.477,18.005,4.07,29.237,4.07,38.818,0,18.666-.767,27.586-5.888,27.586-7.101,0-11.231-13.875-15.691-28.576-5.782-18.667-13.546-39.315-32.874-39.315-16.518,0-20.978,18.666-20.978,39.811,0,11.066,1.156,24.941,3.304,41.955h17.014c-1.652-11.727-3.47-25.932-3.47-39.478-.165-19.988,1.817-25.933,5.286-25.933,7.103,0,11.232,14.041,15.693,28.576,5.781,18.666,13.545,39.315,33.037,39.315,13.711,0,20.979-11.893,20.979-41.791m29.01-20.197c0-5.465,7.503-7.151,25.675-6.986,13.049,.164,25.368,1.976,35.94,3.629V3.723c-15.693-1.98-28.234-3.138-38.806-3.138-20.318,0-39.66,5.286-39.66,21.474,0,20.65,18.992,22.408,38.199,27.384,14.627,3.789,26.226,4.992,26.226,11.932,0,5.768-7.764,7.102-25.438,7.102-9.252,0-19.988-.99-37.498-3.635v16.395c16.687,2.43,29.567,3.596,39.479,3.596,28.578,0,40.306-7.93,40.306-21.641,0-20.482-19.997-23.682-37.691-28.03-17.68-4.347-26.731-5.172-26.731-12.11m156.683,59.511c-1.155-19.326-4.625-37.33-10.405-51.537-7.93-19.493-19.328-30.396-32.212-30.396s-24.283,10.902-32.212,30.396c-5.616,14.206-9.25,32.211-10.406,51.537h17.014c2.312-39.975,15.393-65.084,25.604-65.084s23.292,25.109,25.768,65.084h16.849Z"></path></svg>